<svg xmlns="http://www.w3.org/2000/svg" width="25" height="25" viewBox="0 0 25 25">
    <defs>
        <style>
            .cls-1{fill:#fff}.cls-2{clip-path:url(#clip-path)}
        </style>
        <clipPath id="clip-path">
            <path id="Trazado_27" d="M25 0v25H0V0z" class="cls-1" data-name="Trazado 27"/>
        </clipPath>
    </defs>
    <g id="copyright-24px" class="cls-2">
        <path id="Trazado_26" d="M10.417 11.229a2.663 2.663 0 0 1 .313-.906 1.822 1.822 0 0 1 .615-.646 1.849 1.849 0 0 1 .948-.24 1.888 1.888 0 0 1 .656.135 1.679 1.679 0 0 1 .542.375 2.006 2.006 0 0 1 .354.552 1.824 1.824 0 0 1 .146.667h1.865a3.729 3.729 0 0 0-.292-1.344 3.126 3.126 0 0 0-.729-1.052 3.4 3.4 0 0 0-1.125-.687 4.024 4.024 0 0 0-1.448-.24 4.071 4.071 0 0 0-1.772.357 3.582 3.582 0 0 0-1.25.958 3.916 3.916 0 0 0-.74 1.417 6.1 6.1 0 0 0-.25 1.708v.281a6.1 6.1 0 0 0 .24 1.708 3.787 3.787 0 0 0 .74 1.406 3.556 3.556 0 0 0 1.25.948 4.227 4.227 0 0 0 1.771.354 3.973 3.973 0 0 0 1.375-.24 3.553 3.553 0 0 0 1.125-.656 3.18 3.18 0 0 0 .771-.979 2.8 2.8 0 0 0 .313-1.2h-1.866a1.483 1.483 0 0 1-.156.6 1.533 1.533 0 0 1-.375.479 1.641 1.641 0 0 1-.542.313 2.068 2.068 0 0 1-.625.1 1.769 1.769 0 0 1-.927-.24 1.822 1.822 0 0 1-.615-.646 2.722 2.722 0 0 1-.313-.917 7.021 7.021 0 0 1-.083-1.042v-.281a6.94 6.94 0 0 1 .083-1.052zm2-9.229a10.417 10.417 0 1 0 10.416 10.417A10.42 10.42 0 0 0 12.417 2zm0 18.75a8.333 8.333 0 1 1 8.333-8.333 8.344 8.344 0 0 1-8.333 8.333z" class="cls-1" data-name="Trazado 26" transform="translate(.083 .083)"/>
    </g>
</svg>
