<svg xmlns="http://www.w3.org/2000/svg" width="50" height="45.856" viewBox="0 0 50 45.856">
    <defs>
        <style>
            .cls-1{fill:none}.cls-2{fill:#f6911d}.cls-3{clip-path:url(#clip-path)}.cls-4{fill:#fcd00a}.cls-5{fill:#fce858}.cls-6{fill:#f7921e}.cls-7{fill:#ffffcf}.cls-8{fill:#e07900}
        </style>
        <clipPath id="clip-path">
            <path id="Rectángulo_41" d="M0 0h50v45.856H0z" class="cls-1" data-name="Rectángulo 41"/>
        </clipPath>
    </defs>
    <g id="Grupo_48" data-name="Grupo 48">
        <path id="Trazado_417" d="M25.782 0l-2.3 17.127-7.736-15.838 3.867 17.219L5.34 9.945l11.141 9.945L0 23.389l17.035.784-12.8 12.383 17.5-8.932L18.784 44.2l6.169-16.482 8.011 18.14-4.88-19.247L46.408 34.9 29.834 24.678 50 24.173l-19.89-1.245 15.162-11.786-16.911 9.484 9.208-18.784-11.695 16.851z" class="cls-2" data-name="Trazado 417"/>
        <g id="Grupo_47" data-name="Grupo 47">
            <g id="Grupo_46" class="cls-3" data-name="Grupo 46">
                <path id="Trazado_418" d="M26.8 24.851s2.4-11.04 6.706-.793c0 0 6.384-11.881 8.457 1.473 0 0 7.586-4.853 3.889 3.62 0 0 14.775.974 2.648 10.072 0 0 4.775 2.527.351 5.893 0 0 4.267 13.095-10.253 7.393 0 0-6.364 8.911-9.691-1.451 0 0-10.368 6.417-10.567-4.685 0 0-12.323-1.758-3.089-9.4 0 0-9.859-8.107 2.046-9.885 0 0 1.121-10.394 9.5-2.235" class="cls-4" data-name="Trazado 418" transform="translate(-8.009 -13.459)"/>
                <path id="Trazado_419" d="M45.854 29.152c3.7-8.473-3.889-3.62-3.889-3.62-2.072-13.354-8.457-1.473-8.457-1.473-4.3-10.247-6.705.793-6.705.793-8.382-8.158-9.5 2.235-9.5 2.235-11.905 1.778-2.046 9.885-2.046 9.885-9.235 7.643 3.089 9.4 3.089 9.4.2 11.1 10.567 4.685 10.567 4.685C32.235 61.421 38.6 52.51 38.6 52.51c14.52 5.7 10.253-7.393 10.253-7.393 4.424-3.366-.351-5.893-.351-5.893 12.127-9.1-2.648-10.072-2.648-10.072m-1.78 9.328s3.8 2.01.28 4.689c0 0 3.4 10.42-8.158 5.882 0 0-5.065 7.091-7.711-1.154 0 0-8.25 5.106-8.408-3.728 0 0-9.806-1.4-2.458-7.481 0 0-7.845-6.451 1.628-7.865 0 0 .892-8.27 7.561-1.779 0 0 1.913-8.784 5.335-.63 0 0 5.08-9.454 6.729 1.172 0 0 6.036-3.861 3.095 2.881 0 0 11.757.775 2.107 8.014" class="cls-5" data-name="Trazado 419" transform="translate(-8.009 -13.459)"/>
                <path id="Trazado_420" d="M45.228 48.364s-.437-4.678 2.878-1.731c0 0 2.486-6.921 6.261-.974 0 0 2.367-.223 1.736 1.8 0 0 7.656-1.381 5.907 7.643 0 0 2.822 1.78.26 3.514 0 0-1.917 9.561-8.363 3.115 0 0-1.657 5.157-5.525 1.013 0 0-3.728 3.13-4.9-.829 0 0-3.385.368-1.635-3.131 0 0-5.8-2.21-1.473-5.617 0 0-4.328-3.96 1.473-2.947 0 0-3.131-1.934-.46-3.5s3.844 1.639 3.844 1.639" class="cls-6" data-name="Trazado 420" transform="translate(-27.191 -30.333)"/>
                <path id="Trazado_421" d="M110.782 53.971a2.759 2.759 0 0 0-3.383-1.3 3.34 3.34 0 0 0-1.576-2.92 1.648 1.648 0 0 0-2.345 1.29c.682-.5 1.7.04 2.178.878a6.555 6.555 0 0 1 .617 2.828 2.609 2.609 0 0 1 2.746.28 3.522 3.522 0 0 1 1.008 1.2c.245.468.279 1.193.624 1.509.866-.808.764-2.7.133-3.769" class="cls-7" data-name="Trazado 421" transform="translate(-72.577 -34.782)"/>
                <path id="Trazado_422" d="M35.751 92.826a2.3 2.3 0 0 0 2.155.741 3.1 3.1 0 0 0 3.955 4.511 3.7 3.7 0 0 1-6.507-3.157 2.648 2.648 0 0 1-1.539-.488c-.517-.368.148-2.538.528-2.866 1-.865.876.64 1.408 1.259" class="cls-7" data-name="Trazado 422" transform="translate(-23.584 -64.04)"/>
                <path id="Trazado_423" d="M67.638 28.939a3.836 3.836 0 0 1 .4-.982 1.292 1.292 0 0 1 .836-.607 1.727 1.727 0 0 1 1.518.891 7.062 7.062 0 0 1 1.248 2.926l-1.449-1.847a1.331 1.331 0 0 0-.815-.607c-.454-.049-.812.359-1.082.727a11.644 11.644 0 0 1-1.237 1.74c.138-.659.386-1.6.581-2.241" class="cls-7" data-name="Trazado 423" transform="translate(-47.033 -19.173)"/>
                <path id="Trazado_424" d="M72.413 89.985a1.833 1.833 0 0 0 1.65-.5 3.118 3.118 0 0 0 .833-1.564 4.312 4.312 0 0 0 2.987 1.264A2.385 2.385 0 0 0 80.19 87.2a3.576 3.576 0 0 1-5.516-1.283 3.893 3.893 0 0 1-1 2.232 2.137 2.137 0 0 1-.834.494c-.3.094-.81-.054-1.046.053-.767.346.084 1.156.623 1.29" class="cls-8" data-name="Trazado 424" transform="translate(-50.137 -60.261)"/>
                <path id="Trazado_425" d="M66.066 59.809a1.081 1.081 0 0 1 .655-.713c.324-.087.733.182.67.512a4.1 4.1 0 0 1 .658-1.411 1.784 1.784 0 0 1 1.332-.722 1.156 1.156 0 0 1 1.148.872.859.859 0 0 1 1.125-.548 1.782 1.782 0 0 1 .951 1 4.106 4.106 0 0 1 .278 2.577 6.49 6.49 0 0 1-.241-1.2 2.914 2.914 0 0 0-.377-1.156 1.21 1.21 0 0 0-1.011-.591.777.777 0 0 0-.753.79 1 1 0 0 0-1.118-.824 1.637 1.637 0 0 0-1.188.9 4.84 4.84 0 0 0-.426 1.484.926.926 0 0 0-.97-.844c-.436.04-.571.426-.877.618a2.084 2.084 0 0 1 .145-.75" class="cls-8" data-name="Trazado 425" transform="translate(-46.236 -40.311)"/>
                <path id="Trazado_426" d="M47.853 71.606a.995.995 0 0 0 .054 1.959c-.711.305-1.513.716-1.673 1.473a1.655 1.655 0 0 0 .705 1.577 4.873 4.873 0 0 0 1.67.7A1.251 1.251 0 0 0 49.2 79.3a2.141 2.141 0 0 1 .671-2.286 2.33 2.33 0 0 0-.937-.479 3.523 3.523 0 0 1-.976-.407 1.022 1.022 0 0 1-.481-.89.611.611 0 0 1 .746-.54.9.9 0 0 1 .777-.935c-.092-.4-.66-.468-.9-.8a.6.6 0 0 1 .091-.771.662.662 0 0 1 .727-.053.969.969 0 0 0-1.064-.53" class="cls-8" data-name="Trazado 426" transform="translate(-32.41 -50.211)"/>
                <path id="Trazado_427" d="M33.995 43.955a3.155 3.155 0 0 0-4.349 2.512 2.243 2.243 0 0 0-2.8.421 5.466 5.466 0 0 0-1.258 2.777 2.7 2.7 0 0 1 3.049-3.965 2.7 2.7 0 0 1 .944-1.92 4.384 4.384 0 0 1 1.9-.908 2.84 2.84 0 0 1 1.734.029c.543.225.9.478.78 1.054" class="cls-7" data-name="Trazado 427" transform="translate(-17.692 -29.984)"/>
                <path id="Trazado_428" d="M112.956 107.621a2.848 2.848 0 0 0 1.107-3.265 1.776 1.776 0 0 0 1.985-2.648 4.839 4.839 0 0 1 .521 1.661 1.642 1.642 0 0 1-.683 1.518 1.185 1.185 0 0 0-.387.27c-.194.267 0 .628.1.941a2.081 2.081 0 0 1-.953 2.311 3.39 3.39 0 0 1-2.606.287c-.479-.122-1.612-.394-1.766-.907a3 3 0 0 0 2.681-.169" class="cls-7" data-name="Trazado 428" transform="translate(-77.345 -71.337)"/>
            </g>
        </g>
    </g>
</svg>
