<svg xmlns="http://www.w3.org/2000/svg" id="Grupo_39" width="207.195" height="207" data-name="Grupo 39" viewBox="0 0 207.195 207">
    <defs>
        <style>
            .cls-1{fill:none}.cls-2{clip-path:url(#clip-path)}.cls-3{clip-path:url(#clip-path-2)}.cls-4{fill:#79cace}.cls-5{fill:#4d97ae}.cls-6{fill:#d55766}.cls-7{fill:#f5a79d}.cls-8{fill:#fff5bf}.cls-9{opacity:.8}.cls-18,.cls-9{mix-blend-mode:multiply}.cls-18,.cls-21,.cls-35,.cls-9{isolation:isolate}.cls-10{clip-path:url(#clip-path-3)}.cls-11{fill:#ebddb0}.cls-12{fill:#3b6d8c}.cls-13{fill:#aee8e8}.cls-14{fill:#ffffe8}.cls-15{fill:#ed4b67}.cls-16,.cls-17{fill:#ca3333}.cls-17{font-size:14px;font-family:BowlbyOneSC-Regular,Bowlby One SC}.cls-18,.cls-21{opacity:.5}.cls-19{clip-path:url(#clip-path-5)}.cls-20{fill:#5d4b7f}.cls-21,.cls-35{mix-blend-mode:soft-light}.cls-22{clip-path:url(#clip-path-6)}.cls-23{fill:#fff}.cls-24{fill:#3d2e56}.cls-25{clip-path:url(#clip-path-7)}.cls-26{clip-path:url(#clip-path-8)}.cls-27{clip-path:url(#clip-path-9)}.cls-28{clip-path:url(#clip-path-10)}.cls-29{clip-path:url(#clip-path-11)}.cls-30{clip-path:url(#clip-path-12)}.cls-31{fill:#a33b48}.cls-32{fill:#fff5d9}.cls-33{clip-path:url(#clip-path-13)}.cls-34{fill:#1d172d}.cls-35{opacity:.9}.cls-36{clip-path:url(#clip-path-14)}
        </style>
        <clipPath id="clip-path">
            <path id="Rectángulo_14" d="M0 0h207.195v207H0z" class="cls-1" data-name="Rectángulo 14"/>
        </clipPath>
        <clipPath id="clip-path-2">
            <path id="Rectángulo_2" d="M0 0h158.858v178.522H0z" class="cls-1" data-name="Rectángulo 2"/>
        </clipPath>
        <clipPath id="clip-path-3">
            <path id="Rectángulo_1" d="M0 0h3.679v4.824H0z" class="cls-1" data-name="Rectángulo 1"/>
        </clipPath>
        <clipPath id="clip-path-5">
            <path id="Rectángulo_3" d="M0 0h32.051v12.32H0z" class="cls-1" data-name="Rectángulo 3"/>
        </clipPath>
        <clipPath id="clip-path-6">
            <path id="Rectángulo_4" d="M0 0h8.215v2.66H0z" class="cls-1" data-name="Rectángulo 4"/>
        </clipPath>
        <clipPath id="clip-path-7">
            <path id="Rectángulo_5" d="M0 0h38.145v11.311H0z" class="cls-1" data-name="Rectángulo 5"/>
        </clipPath>
        <clipPath id="clip-path-8">
            <path id="Rectángulo_6" d="M0 0h7.269v5.079H0z" class="cls-1" data-name="Rectángulo 6"/>
        </clipPath>
        <clipPath id="clip-path-9">
            <path id="Rectángulo_7" d="M0 0h33.663v10.093H0z" class="cls-1" data-name="Rectángulo 7"/>
        </clipPath>
        <clipPath id="clip-path-10">
            <path id="Rectángulo_8" d="M0 0h3.558v5.967H0z" class="cls-1" data-name="Rectángulo 8"/>
        </clipPath>
        <clipPath id="clip-path-11">
            <path id="Rectángulo_9" d="M0 0h24.278v14.988H0z" class="cls-1" data-name="Rectángulo 9"/>
        </clipPath>
        <clipPath id="clip-path-12">
            <path id="Rectángulo_10" d="M0 0h6.746v4.981H0z" class="cls-1" data-name="Rectángulo 10"/>
        </clipPath>
        <clipPath id="clip-path-13">
            <path id="Rectángulo_11" d="M0 0h3.387v12.455H0z" class="cls-1" data-name="Rectángulo 11"/>
        </clipPath>
        <clipPath id="clip-path-14">
            <path id="Rectángulo_12" d="M0 0h158.858v27.245H0z" class="cls-1" data-name="Rectángulo 12"/>
        </clipPath>
    </defs>
    <g id="Grupo_38" class="cls-2" data-name="Grupo 38">
        <g id="Grupo_5" data-name="Grupo 5" transform="translate(25.615 28.478)">
            <g id="Grupo_4" class="cls-3" data-name="Grupo 4">
                <path id="Trazado_1" d="M120.128 274.307s5.1-57.905 5.756-64.056a33.5 33.5 0 0 1-10.762-23.633c-.44-15.159 72.354-29.219 74.773-19.113s-3.7 25.767-13.82 40.487l.292 66.316z" class="cls-4" data-name="Trazado 1" transform="translate(-67.56 -96.364)"/>
                <path id="Trazado_2" d="M183.213 284.424c0 .012-2.38 36.452-7.439 35.3s-9.184 4.467-15.143 0-23.309-4.424-28.286-2.96c-1.12.33-1.869-.815-2.36-2.784-1.4 15.7-2.744 31-2.744 31h56.239z" class="cls-5" data-name="Trazado 2" transform="translate(-74.672 -167.037)"/>
                <path id="Trazado_3" d="M189.9 167.5c-2.419-10.106-75.213 3.955-74.773 19.113a33.355 33.355 0 0 0 4.519 15.837 92.19 92.19 0 0 0 30.537-17.131c11.514-9.658 27.538-15.388 39.932-16.77a18.047 18.047 0 0 0-.215-1.05" class="cls-5" data-name="Trazado 3" transform="translate(-67.56 -96.363)"/>
                <path id="Trazado_4" d="M115.792 227.014a33.58 33.58 0 0 0 .868 4 37.719 37.719 0 0 0 1.285 3.878 31.439 31.439 0 0 0 3.848 7.163 23.662 23.662 0 0 0 2.62 3.109 22.884 22.884 0 0 0 3.108 2.621c.541.413 1.137.742 1.71 1.108.6.313 1.188.665 1.818.927a25.645 25.645 0 0 0 3.836 1.424 21.788 21.788 0 0 1-7.544-3.2 20.6 20.6 0 0 1-3.193-2.616 23.854 23.854 0 0 1-2.69-3.133A30.367 30.367 0 0 1 117.65 235a32.4 32.4 0 0 1-1.858-7.989" class="cls-5" data-name="Trazado 4" transform="translate(-67.953 -133.321)"/>
                <path id="Trazado_5" d="M186.421 325.68l-12.053-.473-.524-2.232-1.447 2.537s-8.82-.759-10.326-1.819.107-2.223-1.506-1.06-14.5-5.549-15.754-6.2-.2 3.815 1.258 5.356a16.368 16.368 0 0 0 10.28 4.969c4.931.257 11.613 2.616 12.849 1.856s1.646 1.655 1.646 1.655.318-4 2.315-3.525 13.263-1.067 13.263-1.067" class="cls-6" data-name="Trazado 5" transform="translate(-84.656 -185.799)"/>
                <path id="Trazado_6" d="M149.592 326c-2.459-1.552-2.467-4.424.6-2.6s7.747 4.232 10.315 4.809 12.088 1.25 11.709 2.452-2.386.725-7.408 0-12.489-2.946-15.212-4.664" class="cls-7" data-name="Trazado 6" transform="translate(-86.745 -189.582)"/>
                <path id="Trazado_7" d="M196.738 327.17c.981.273-1.744 8.633-2.4 10.2s-1.844.511-1.624-.561 2.678-10.011 4.022-9.637" class="cls-8" data-name="Trazado 7" transform="translate(-113.081 -192.134)"/>
                <path id="Trazado_8" d="M164.693 315.43c-.692-.937-1.448-1.623-3.075.72l-1.627 2.343s-6.479 7.875-5.949 8.457 1.2 1.76 2.071.456 9.271-11.041 8.58-11.978" class="cls-8" data-name="Trazado 8" transform="translate(-90.383 -184.735)"/>
                <g id="Grupo_3" class="cls-9" data-name="Grupo 3" transform="translate(67.494 133.758)">
                    <g id="Grupo_2" data-name="Grupo 2">
                        <g id="Grupo_1" class="cls-10" data-name="Grupo 1">
                            <path id="Trazado_9" d="M164.863 328.916a125.725 125.725 0 0 0 2.183-2.777l-1.564-2.047s-.963 1.17-2.115 2.641z" class="cls-11" data-name="Trazado 9" transform="translate(-163.367 -324.092)"/>
                        </g>
                    </g>
                </g>
                <path id="Trazado_10" d="M156.24 312.436c1.056 1.393 9.522 13.118 10.122 14s-.8 2.62-1.438 1.906-9.372-13.815-10.173-14.883.585-2.214 1.489-1.022" class="cls-8" data-name="Trazado 10" transform="translate(-90.676 -183.19)"/>
                <path id="Trazado_11" d="M178.291 313.572a5.569 5.569 0 0 0-1.382-1.45 2.954 2.954 0 0 0-.87-.419 5.7 5.7 0 0 0-1-.193 2.211 2.211 0 0 1 1.072-.122 2.427 2.427 0 0 1 .542.13 3.008 3.008 0 0 1 .494.263 2.767 2.767 0 0 1 .763.79 2.5 2.5 0 0 1 .387 1" class="cls-5" data-name="Trazado 11" transform="translate(-102.72 -182.859)"/>
                <path id="Trazado_12" d="M153.951 307.849a4.461 4.461 0 0 0-.916.035 1.386 1.386 0 0 0-.73.327 1.7 1.7 0 0 0-.422.694c-.041.139-.079.286-.121.434a4.7 4.7 0 0 1-.1.463 4.134 4.134 0 0 1-.1-.475 3.356 3.356 0 0 1 .009-.494 1.561 1.561 0 0 1 .461-.929 1.4 1.4 0 0 1 .985-.34 1.809 1.809 0 0 1 .937.285" class="cls-5" data-name="Trazado 12" transform="translate(-88.941 -180.626)"/>
                <path id="Trazado_13" d="M156.325 342.276a1.8 1.8 0 0 1-1.339 1.656 2.906 2.906 0 0 1-1.138.075 3.317 3.317 0 0 1-.568-.115c-.093-.031-.182-.076-.272-.114a1.06 1.06 0 0 1-.26-.142 2.313 2.313 0 0 1-1.006-2.01 2.606 2.606 0 0 1 .25-1.1 1.4 1.4 0 0 1 .8-.743 1.421 1.421 0 0 0-.616.821 2.714 2.714 0 0 0-.114 1.014 2.3 2.3 0 0 0 .266.96 1.745 1.745 0 0 0 .644.714.769.769 0 0 0 .211.12c.075.032.147.072.224.1a3.659 3.659 0 0 0 .489.111 2.891 2.891 0 0 0 1.011 0 1.834 1.834 0 0 0 1.416-1.345" class="cls-5" data-name="Trazado 13" transform="translate(-89.049 -199.548)"/>
                <path id="Trazado_14" d="M181.278 346.747a3.242 3.242 0 0 1 .06 1.287 2.642 2.642 0 0 1-.5 1.238 1.78 1.78 0 0 1-1.175.678 2.193 2.193 0 0 1-.665 0 3.889 3.889 0 0 1-.623-.173c.217-.022.426-.007.629-.029a2.855 2.855 0 0 0 .587-.116 1.732 1.732 0 0 0 .923-.62 3.161 3.161 0 0 0 .509-1.05 8.739 8.739 0 0 0 .253-1.219" class="cls-5" data-name="Trazado 14" transform="translate(-104.681 -203.638)"/>
                <path id="Trazado_15" d="M199.581 325.224a1.38 1.38 0 0 1 .608-.581 1.044 1.044 0 0 1 .919-.021 1.4 1.4 0 0 1 .607.656 1.992 1.992 0 0 1 .181.811 3.786 3.786 0 0 1-.233-.333c-.072-.109-.157-.207-.224-.312a1.668 1.668 0 0 0-.508-.451 1.587 1.587 0 0 0-1.35.23" class="cls-5" data-name="Trazado 15" transform="translate(-117.125 -190.588)"/>
                <path id="Trazado_16" d="M190.233 351.207a5.246 5.246 0 0 0 .661.87 2.192 2.192 0 0 0 .833.562.85.85 0 0 0 .236.07 1.019 1.019 0 0 0 .246.036c.083 0 .168.014.253.013s.171-.019.258-.025c.175-.01.345-.071.526-.1.175-.051.35-.112.539-.155a4.791 4.791 0 0 1-.461.342 2.938 2.938 0 0 1-.538.227 1.891 1.891 0 0 1-1.2-.023 1.98 1.98 0 0 1-.939-.745 2.337 2.337 0 0 1-.412-1.073" class="cls-5" data-name="Trazado 16" transform="translate(-111.639 -206.257)"/>
                <path id="Trazado_17" d="M218.527 331.267c.992-.076-.4 5.58-.8 6.674s-1.712.753-1.66.059 1.1-6.631 2.457-6.734" class="cls-8" data-name="Trazado 17" transform="translate(-126.802 -194.546)"/>
                <path id="Trazado_18" d="M219.788 329.97a1.412 1.412 0 0 1 .3-.636.837.837 0 0 1 .722-.353.65.65 0 0 1 .4.218.622.622 0 0 1 .115.163.941.941 0 0 1 .082.17 1.634 1.634 0 0 1 .083.7c-.145-.192-.251-.381-.368-.55s-.252-.291-.361-.293a.707.707 0 0 0-.448.177c-.167.118-.333.261-.521.4" class="cls-5" data-name="Trazado 18" transform="translate(-128.984 -193.202)"/>
                <path id="Trazado_19" d="M214.307 347.293a4.152 4.152 0 0 0 .44 1.006.788.788 0 0 0 .761.412 2.281 2.281 0 0 0 .947-.369c.318-.183.615-.409.952-.605a3.991 3.991 0 0 1-.767.869 3.132 3.132 0 0 1-.494.339 1.77 1.77 0 0 1-.611.179 1.04 1.04 0 0 1-.168.006l-.172-.034a.846.846 0 0 1-.319-.137 1.493 1.493 0 0 1-.247-.228 1.766 1.766 0 0 1-.162-.274 2.135 2.135 0 0 1-.161-1.162" class="cls-5" data-name="Trazado 19" transform="translate(-125.755 -203.959)"/>
                <path id="Trazado_20" d="M234.062 333.117c.783-.059-.314 4.4-.628 5.266s-1.351.594-1.309.047.864-5.232 1.938-5.313" class="cls-8" data-name="Trazado 20" transform="translate(-136.223 -195.633)"/>
                <path id="Trazado_21" d="M234.476 331.64a1.619 1.619 0 0 1 .309-.645 1.2 1.2 0 0 1 .634-.45 1.353 1.353 0 0 1 .232-.015 1.2 1.2 0 0 1 .228.068c.063.043.124.087.181.134a1.737 1.737 0 0 1 .12.164 1.418 1.418 0 0 1 .141.348 2.264 2.264 0 0 1 .029.36 2.785 2.785 0 0 1-.213-.276c-.075-.08-.137-.17-.209-.233a1.079 1.079 0 0 1-.1-.091.9.9 0 0 1-.105-.051.607.607 0 0 1-.1-.021l-.107.015a1.5 1.5 0 0 0-.5.274z" class="cls-5" data-name="Trazado 21" transform="translate(-137.604 -194.115)"/>
                <path id="Trazado_22" d="M230.275 346.674a2.456 2.456 0 0 0 .594.672.86.86 0 0 0 .727.133 2.4 2.4 0 0 0 .77-.361c.257-.162.5-.355.779-.526a3.017 3.017 0 0 1-.579.778 2.912 2.912 0 0 1-.392.312 1.834 1.834 0 0 1-.489.2.846.846 0 0 1-.276.029.76.76 0 0 1-.281-.038.8.8 0 0 1-.258-.114.891.891 0 0 1-.213-.171 1.423 1.423 0 0 1-.382-.914" class="cls-5" data-name="Trazado 22" transform="translate(-135.138 -203.547)"/>
                <path id="Trazado_23" d="M231.634 299.491c-4.991.2-10.683 5.182-3.8 4.523s10.089-4.779 3.8-4.523" class="cls-12" data-name="Trazado 23" transform="translate(-131.838 -175.878)"/>
                <path id="Trazado_24" d="M247.08 313.365c-3.448-1.312-1.612-4.908 1.36-3.32s1.672 4.473-1.36 3.32" class="cls-12" data-name="Trazado 24" transform="translate(-143.903 -181.85)"/>
                <path id="Trazado_25" d="M234.11 313.464c-2.378.3-4.964 2.356-.52 2.658s2.8-2.946.52-2.658" class="cls-12" data-name="Trazado 25" transform="translate(-135.662 -184.081)"/>
                <path id="Trazado_26" d="M145.721 293.364c-1.346-.611-3.24 2.406-1.219 3.06s3.836-1.872 1.219-3.06" class="cls-13" data-name="Trazado 26" transform="translate(-84.283 -172.239)"/>
                <path id="Trazado_27" d="M152 290.335c-1.143.371-.574 1.857.629 1.486s.515-1.857-.629-1.486" class="cls-13" data-name="Trazado 27" transform="translate(-88.836 -170.473)"/>
                <path id="Trazado_28" d="M145.949 287.5c-1.149.727-.837 1.943.494 1.447s.655-2.174-.494-1.447" class="cls-13" data-name="Trazado 28" transform="translate(-85.236 -168.738)"/>
                <path id="Trazado_29" d="M43.388 29.967L150.1 3.8l10 66.527L65.928 98.1z" class="cls-14" data-name="Trazado 29" transform="translate(-25.463 -2.229)"/>
                <path id="Trazado_30" d="M86.84 51.292c-.007-2.806 1.726-1.837 2.5-.57s3.273 1.074 3.562-1.33 2.532 2.837 3.025-2.534c.185-2.008 4.2 4.361 4.2-1.3 0-2.17 3.1-1.846 3.682-.761 1.4 2.6 2.574-2.28 3.208-.663 1.211 3.093 1.518 4.35 4.951 2.241 1.168-.718 2.277 2.786 2.888 1.7.447-.792-4.34-5.414-6.946-7.841l-31.927 7.834c.609.6 2.666 2.469 4.207 2.254 1.829-.255 2.5-1.986 2.984-.448s3.672 4.224 3.665 1.419" class="cls-15" data-name="Trazado 30" transform="translate(-44.591 -23.632)"/>
                <path id="Trazado_31" d="M113.876 46.3a77.542 77.542 0 0 0-5.976-6.06l-31.918 7.828c.159.156.42.4.742.671a5.765 5.765 0 0 0 3.1.174c1.517-.577 3.971-1.208 4.549.154s1.444.731 2.021 0 2.383-1.524 3.1-.37 2.328-1.652 3.032-.81 1.743-2.387 2.174-1.509 1.444-1.715 2.31-.817 2.094.033 2.31-1.049 4.188-1.327 4.838-.376 1.3.459 1.589-.593 2.094-.042 2.455 1.04c.2.587 1.679 1.508 3 2.228.236-.126.484-.266.758-.434.556-.342 1.1.272 1.58.894.093-.256.21-.584.339-.97" class="cls-16" data-name="Trazado 31" transform="translate(-44.591 -23.632)"/>
                <path id="Trazado_32" d="M163.06 24.045s11.148-.483 11.88.65 2.488 4.762 2.945 1.613c.188-1.295 2.31-.861 3.08.435s2.789 1.681 2.646.623 3.5 1.732 5.158-.1 9.627-3.093 11.5-1.547 5.639-2.121 6.645-.335 5.723.963 5.627-.693 2.331-2.677 3.284-2.215.424-4.127-2.778-5.823c-1.47-.78-6.012-1.619-10.492-2.3z" class="cls-16" data-name="Trazado 32" transform="translate(-95.693 -8.433)"/>
                <path id="Trazado_33" d="M220.325 23.317a3.045 3.045 0 0 1 2.487-.913 5.211 5.211 0 0 0 .642-.879 6.539 6.539 0 0 0-3.189-4.868c-1.47-.779-6.012-1.618-10.492-2.3L175.36 22.8c.219.408.439.794.656 1.147a29.443 29.443 0 0 1 5.354.38c1.365-.244 3.579-.577 4.07-.281a79.885 79.885 0 0 0 8.726 3.853 2.144 2.144 0 0 0 1.822-.629c1.66-1.827 9.627-3.093 11.5-1.546 1.839 1.517 5.5-1.981 6.583-.427a8.309 8.309 0 0 1 1.693-.266c2.122.024 2.982-1.437 4.561-1.713" class="cls-16" data-name="Trazado 33" transform="translate(-102.911 -8.433)"/>
            </g>
        </g>
        <text id="Battle-Zombie" class="cls-17" transform="rotate(-17.042 348.967 -92.253)">
            <tspan x="0" y="0">Battle-Zombie</tspan>
        </text>
        <g id="Grupo_37" data-name="Grupo 37" transform="translate(25.615 28.478)">
            <g id="Grupo_36" class="cls-3" data-name="Grupo 36">
                <path id="Trazado_34" d="M221.145 279.558a28.256 28.256 0 0 0 4.783-1.224c.385-.146.775-.274 1.158-.424l1.143-.46 1.118-.515c.373-.171.728-.378 1.094-.564l.547-.281.531-.311c.351-.212.716-.4 1.056-.632.682-.456 1.368-.908 2.015-1.414a34.612 34.612 0 0 0 3.707-3.263q-.4.472-.814.936a12.268 12.268 0 0 1-.846.911l-.9.858c-.295.293-.634.536-.949.807a25.2 25.2 0 0 1-4.153 2.753 26.184 26.184 0 0 1-4.608 1.9c-.8.239-1.6.44-2.414.61a18.736 18.736 0 0 1-2.466.314" class="cls-5" data-name="Trazado 34" transform="translate(-129.78 -158.842)"/>
                <path id="Trazado_35" d="M220.061.839c2.529-1.867 4.069-.439 11.876 2.527S245.9 8.2 244.912 10.615l-.989 2.417A16.076 16.076 0 0 1 229.3 14.9c-8.135-3.076-8.135-3.955-8.135-3.955l-8.357.879s4.728-9.117 7.257-10.985" class="cls-4" data-name="Trazado 35" transform="translate(-124.885)"/>
                <path id="Trazado_36" d="M240.893 3.365C233.086.4 231.546-1.029 229.017.838a6.566 6.566 0 0 0-.953.914 7.19 7.19 0 0 1 5.528-.186c2.572 1.079 13.851 5.27 19.962 7.53C252.1 7.333 247 5.685 240.893 3.365" class="cls-13" data-name="Trazado 36" transform="translate(-133.841)"/>
                <g id="Grupo_8" class="cls-18" data-name="Grupo 8" transform="translate(87.919 3.587)">
                    <g id="Grupo_7" data-name="Grupo 7">
                        <g id="Grupo_6" class="cls-19" data-name="Grupo 6">
                            <path id="Trazado_37" d="M244.855 15.859c-4.423 1.308-10.308 1.92-13.234.509-3.292-1.587-10.16-5.5-13.932-7.677a87.977 87.977 0 0 0-4.885 8.237l8.357-.879s0 .879 8.135 3.955a16.076 16.076 0 0 0 14.627-1.868l.932-2.277" class="cls-4" data-name="Trazado 37" transform="translate(-212.804 -8.691)"/>
                        </g>
                    </g>
                </g>
                <path id="Trazado_38" d="M276.612 17.24l1.517.342a3.709 3.709 0 0 0 .215-1.245l-1.752-.5 1.716-.09a5.674 5.674 0 0 0-.177-.889s-9.314-2.5-10.788-3.052-2.35 3.626 1.938 4.944 7.64 2.391 7.64 2.391a2.838 2.838 0 0 0 .687-.636z" class="cls-20" data-name="Trazado 38" transform="translate(-156.182 -6.905)"/>
                <g id="Grupo_11" class="cls-21" data-name="Grupo 11" transform="translate(111.95 5.644)">
                    <g id="Grupo_10" data-name="Grupo 10">
                        <g id="Grupo_9" class="cls-22" data-name="Grupo 9">
                            <path id="Trazado_39" d="M272.844 14.866c-1.639-.662-2.728-1.544-.99-1.047s8.565 2.617 7.135 2.511a56.761 56.761 0 0 1-6.145-1.463" class="cls-23" data-name="Trazado 39" transform="translate(-270.97 -13.674)"/>
                        </g>
                    </g>
                </g>
                <path id="Trazado_40" d="M276.983 19.114c-2.417-.79-7.336-2.488-8.765-3.653a4.03 4.03 0 0 1-1.206-3.685c-1.245.136-1.68 3.772 2.271 4.987 4.288 1.318 7.64 2.391 7.64 2.391s.022-.013.06-.039" class="cls-24" data-name="Trazado 40" transform="translate(-156.183 -6.915)"/>
                <path id="Trazado_41" d="M258.9 8.962a7.052 7.052 0 0 0-1.012 1.922c-.122.338-.218.686-.309 1.04-.047.177-.081.357-.128.537s-.074.364-.13.55a4.07 4.07 0 0 1-.06-1.139 4.662 4.662 0 0 1 .239-1.125 4.03 4.03 0 0 1 .543-1.022 2.486 2.486 0 0 1 .858-.762" class="cls-5" data-name="Trazado 41" transform="translate(-150.964 -5.263)"/>
                <path id="Trazado_42" d="M254.8 7.506c-.232.364-.437.728-.626 1.1a11.409 11.409 0 0 0-.873 2.314c-.111.4-.18.813-.278 1.237a4.34 4.34 0 0 1-.04-1.294 5.1 5.1 0 0 1 .3-1.269 5.159 5.159 0 0 1 .61-1.154 3.719 3.719 0 0 1 .9-.932" class="cls-5" data-name="Trazado 42" transform="translate(-148.447 -4.408)"/>
                <path id="Trazado_43" d="M252.073 6.277a4.956 4.956 0 0 0-.555.911 7.915 7.915 0 0 0-.383.973c-.119.329-.2.673-.292 1.016-.041.173-.081.348-.128.523s-.079.353-.137.532a5.34 5.34 0 0 1-.064-.551c0-.184 0-.37.012-.555a4.779 4.779 0 0 1 .218-1.094 3.886 3.886 0 0 1 .5-1.007 2.223 2.223 0 0 1 .831-.747" class="cls-5" data-name="Trazado 43" transform="translate(-147.014 -3.686)"/>
                <path id="Trazado_44" d="M179.827 3.786c-2.794 1.451-9.016 7.069-12.536 13.751l13.309-1.668s10.006 7.25 18.583 6.152 6.6-4.724 4.289-7.14c-1.716-1.8-9.679-5.854-16.387-10.951-1.917-1.456-4.507-1.571-7.255-.143" class="cls-4" data-name="Trazado 44" transform="translate(-98.176 -1.629)"/>
                <path id="Trazado_45" d="M215.187 14.881c-1.716-1.8-9.679-5.854-16.386-10.951-1.917-1.456-4.506-1.571-7.255-.143a22.44 22.44 0 0 0-4.286 3.245 11.867 11.867 0 0 1 6.9-1.7c4.036.531 17.371 8.441 22.576 11.6a9.428 9.428 0 0 0-1.546-2.052" class="cls-13" data-name="Trazado 45" transform="translate(-109.894 -1.629)"/>
                <g id="Grupo_14" class="cls-18" data-name="Grupo 14" transform="translate(69.116 9.194)">
                    <g id="Grupo_13" data-name="Grupo 13">
                        <g id="Grupo_12" class="cls-25" data-name="Grupo 12">
                            <path id="Trazado_46" d="M199.18 33.474c4.5-.576 6.089-1.847 6.257-3.273a17.181 17.181 0 0 1-7.694 1.322c-4.765-.558-16.147-6.913-16.147-6.913s-3.925 1.412-5.925 1.123c-1.153-.166-2.678-1.964-3.765-3.457a37.633 37.633 0 0 0-4.615 6.713l13.309-1.666s10.006 7.25 18.583 6.152" class="cls-4" data-name="Trazado 46" transform="translate(-167.291 -22.277)"/>
                        </g>
                    </g>
                </g>
                <path id="Trazado_47" d="M247.6 37.515l1.831 1.057a5.515 5.515 0 0 0 1.6-1.052l-1.071-1s.771.246 1.54.494q.123-.15.239-.316c-.485-.371-.914-.727-.914-.727h1.34c.053-.109.109-.213.159-.33 0 0-8.851-8.19-11.159-6.433-1.018.775-3.89 4.135 6.987 9.729a4.1 4.1 0 0 0 .572-.122z" class="cls-20" data-name="Trazado 47" transform="translate(-140.878 -17.01)"/>
                <g id="Grupo_17" class="cls-21" data-name="Grupo 17" transform="translate(102.23 12.922)">
                    <g id="Grupo_16" data-name="Grupo 16">
                        <g id="Grupo_15" class="cls-26" data-name="Grupo 15">
                            <path id="Trazado_48" d="M249.79 33.69c-2.9-1.589-3.116-3.358-.633-1.74s6.454 4.577 5.371 4.432-3.849-2.2-4.738-2.693" class="cls-23" data-name="Trazado 48" transform="translate(-247.443 -31.309)"/>
                        </g>
                    </g>
                </g>
                <path id="Trazado_49" d="M242.6 29.038a1.739 1.739 0 0 0-1.432.177c-1.018.775-3.89 4.135 6.987 9.728a4.057 4.057 0 0 0 .425-.084 33.449 33.449 0 0 1-5.824-4.9c-2.584-2.906-1.785-4.19-.157-4.918" class="cls-24" data-name="Trazado 49" transform="translate(-140.878 -17.014)"/>
                <path id="Trazado_50" d="M227.986 17.965a9.263 9.263 0 0 0-2.277 1.9 7.05 7.05 0 0 0-.844 1.2 11.752 11.752 0 0 0-.644 1.357 4.472 4.472 0 0 1 .354-1.5 4.849 4.849 0 0 1 .82-1.325 5.279 5.279 0 0 1 1.175-1.022 4.326 4.326 0 0 1 1.416-.608" class="cls-5" data-name="Trazado 50" transform="translate(-131.586 -10.551)"/>
                <path id="Trazado_51" d="M224.052 15.049a11.465 11.465 0 0 0-1.06 1.082 10.86 10.86 0 0 0-.9 1.189 11.624 11.624 0 0 0-.743 1.293c-.23.445-.414.913-.625 1.385a5.7 5.7 0 0 1 .328-1.511 6.415 6.415 0 0 1 .7-1.395 6.278 6.278 0 0 1 1.013-1.186 4.5 4.5 0 0 1 1.29-.858" class="cls-5" data-name="Trazado 51" transform="translate(-129.534 -8.838)"/>
                <path id="Trazado_52" d="M221.243 12.746a10.415 10.415 0 0 0-.875.729 8.5 8.5 0 0 0-1.407 1.706c-.2.314-.369.65-.566.991a3.483 3.483 0 0 1 .281-1.139 4.029 4.029 0 0 1 .615-1.014 4.083 4.083 0 0 1 .878-.8 3.025 3.025 0 0 1 1.074-.477" class="cls-5" data-name="Trazado 52" transform="translate(-128.166 -7.485)"/>
                <path id="Trazado_53" d="M110.334 29.776s9.237-10.6 14.3-13.976 10.336-3.949 13.415 2.871S146.4 32.3 142.772 34.06s-12.408-1.428-15.606-8.348z" class="cls-4" data-name="Trazado 53" transform="translate(-64.75 -7.847)"/>
                <path id="Trazado_54" d="M152.824 18.672c-3.079-6.821-8.357-6.251-13.415-2.871a35.118 35.118 0 0 0-3.891 3.171c3.064-1.442 6.721-2.8 9.022-2.438 3.221.512 8.1 4.571 10.7 6.927-.83-1.551-1.685-3.168-2.416-4.788" class="cls-13" data-name="Trazado 54" transform="translate(-79.53 -7.847)"/>
                <g id="Grupo_20" class="cls-18" data-name="Grupo 20" transform="translate(45.584 16.597)">
                    <g id="Grupo_19" data-name="Grupo 19">
                        <g id="Grupo_18" class="cls-27" data-name="Grupo 18">
                            <path id="Trazado_55" d="M142.772 49.83c1.218-.59 1.43-1.75 1.061-3.287-.653 1.146-1.916 2.107-4.353 1.858-5.487-.561-10.974-8.188-10.974-8.188-3.177.339-18.172 5.333-18.172 5.333l16.833-4.064c3.2 6.921 11.977 10.106 15.605 8.348" class="cls-4" data-name="Trazado 55" transform="translate(-110.334 -40.213)"/>
                        </g>
                    </g>
                </g>
                <path id="Trazado_56" d="M177.453 51.362l1.629 2.208a7.263 7.263 0 0 0 1.849-.694l-.641-1.514 1.165 1.2a6.676 6.676 0 0 0 1.123-.93s-2.64-11.769-7.54-9.429c-3.263 1.558-3.166 5.5 1.783 11.543a6.517 6.517 0 0 0 1.256-.011c-.316-1.086-.624-2.37-.624-2.37" class="cls-20" data-name="Trazado 56" transform="translate(-101.414 -24.603)"/>
                <g id="Grupo_23" class="cls-21" data-name="Grupo 23" transform="translate(76.542 19.276)">
                    <g id="Grupo_22" data-name="Grupo 22">
                        <g id="Grupo_21" class="cls-28" data-name="Grupo 21">
                            <path id="Trazado_57" d="M187.644 51.682c-1.105-1.409-3.539-6.144-1.727-4.709s4.471 8.206 1.727 4.709" class="cls-23" data-name="Trazado 57" transform="translate(-185.266 -46.705)"/>
                        </g>
                    </g>
                </g>
                <path id="Trazado_58" d="M178.606 42.98a2.966 2.966 0 0 0-3.568-.778c-3.263 1.558-3.166 5.5 1.783 11.542 0 0 .109.012.295.019-1.261-1.977-4.09-6.745-3.332-8.654.829-2.092 2.438-2.729 4.823-2.129" class="cls-24" data-name="Trazado 58" transform="translate(-101.414 -24.604)"/>
                <path id="Trazado_59" d="M174.027 35.614a13.926 13.926 0 0 0-2.878.551 7.622 7.622 0 0 0-1.327.561 8.37 8.37 0 0 0-1.216.825 3.858 3.858 0 0 1 1.044-1.1 5.015 5.015 0 0 1 1.372-.681 6.247 6.247 0 0 1 1.5-.275 5.1 5.1 0 0 1 1.506.117" class="cls-5" data-name="Trazado 59" transform="translate(-98.947 -20.84)"/>
                <path id="Trazado_60" d="M172.118 32.036a10.627 10.627 0 0 0-1.611.13 7.941 7.941 0 0 0-1.53.4 6.222 6.222 0 0 0-1.4.709 9.19 9.19 0 0 0-1.253 1.014 4.521 4.521 0 0 1 1.06-1.272 5.262 5.262 0 0 1 .687-.487 6.491 6.491 0 0 1 .767-.351 5.282 5.282 0 0 1 3.285-.144" class="cls-5" data-name="Trazado 60" transform="translate(-97.605 -18.698)"/>
                <path id="Trazado_61" d="M170.881 28.636a8.022 8.022 0 0 0-2.782.579 6.478 6.478 0 0 0-1.24.663 11.581 11.581 0 0 0-1.137.891 4.259 4.259 0 0 1 .94-1.147 4.48 4.48 0 0 1 1.279-.789 4.7 4.7 0 0 1 1.462-.346 3.9 3.9 0 0 1 1.477.149" class="cls-5" data-name="Trazado 61" transform="translate(-97.256 -16.722)"/>
                <path id="Trazado_62" d="M74.874 37.7s-2.893-4.207.076-7.991 13.745-2.926 17.483-5.333 6.488-1.967 6.707 1.988-2.753 8.458-8.469 10.325-15.8 1.011-15.8 1.011" class="cls-4" data-name="Trazado 62" transform="translate(-43.199 -13.447)"/>
                <path id="Trazado_63" d="M74.95 34.218c-2.969 3.784-.076 7.991-.076 7.991s-2.488-7.23 3.74-8.487a24.592 24.592 0 0 0 7.786-3.147c-4.417.7-9.546 1.211-11.453 3.643" class="cls-13" data-name="Trazado 63" transform="translate(-43.199 -17.956)"/>
                <g id="Grupo_26" class="cls-18" data-name="Grupo 26" transform="translate(31.675 9.461)">
                    <g id="Grupo_25" data-name="Grupo 25">
                        <g id="Grupo_24" class="cls-29" data-name="Grupo 24">
                            <path id="Trazado_64" d="M92.468 36.7c5.716-1.868 8.689-6.371 8.469-10.326-.124-2.23-1.053-3.341-2.51-3.456-.05 3.252-.78 7.565-3.916 10-5.487 4.256-17.841 4.8-17.841 4.8s10.082.856 15.8-1.011" class="cls-4" data-name="Trazado 64" transform="translate(-76.67 -22.922)"/>
                        </g>
                    </g>
                </g>
                <path id="Trazado_65" d="M120.505 17.022l1.315-2.114a2.275 2.275 0 0 0-.314-.121l-2.68 1.839a8 8 0 0 0 1.444-1.859 1.906 1.906 0 0 0-.352.122c-1.539 1.538-7.367 5.053-8 5.819s1.869 1.627 3.817.881a11.971 11.971 0 0 0 6.349-5.494z" class="cls-20" data-name="Trazado 65" transform="translate(-65.624 -8.672)"/>
                <g id="Grupo_29" class="cls-21" data-name="Grupo 29" transform="translate(47.899 6.094)">
                    <g id="Grupo_28" data-name="Grupo 28">
                        <g id="Grupo_27" class="cls-30" data-name="Grupo 27">
                            <path id="Trazado_66" d="M122.631 15.672l-1.389.953a8.01 8.01 0 0 0 1.444-1.859 1.919 1.919 0 0 0-.353.122 69.457 69.457 0 0 1-6.393 4.591c.095.26.476.536 1.935-.244a30.669 30.669 0 0 0 4.756-3.563" class="cls-23" data-name="Trazado 66" transform="translate(-115.94 -14.766)"/>
                        </g>
                    </g>
                </g>
                <path id="Trazado_67" d="M115.739 24.922a12.083 12.083 0 0 0 5.733-4.48c-1.446 1.284-4.011 3.4-5.608 3.766a3.446 3.446 0 0 1-3.184-.8 5.014 5.014 0 0 0-.759.631c-.628.766 1.869 1.627 3.817.881" class="cls-24" data-name="Trazado 67" transform="translate(-65.624 -12.005)"/>
                <path id="Trazado_68" d="M104.015 30.584a5.628 5.628 0 0 0 .116 1.837c.058.3.149.591.234.889l.14.449c.05.151.1.3.141.463a3.228 3.228 0 0 1-.579-.789 3.672 3.672 0 0 1-.34-.927 3.129 3.129 0 0 1-.05-.995 1.9 1.9 0 0 1 .338-.928" class="cls-5" data-name="Trazado 68" transform="translate(-60.832 -17.961)"/>
                <path id="Trazado_69" d="M100.254 31.172a14.035 14.035 0 0 0 .575 2.322 10.806 10.806 0 0 0 .44 1.1c.16.365.357.711.538 1.085a4.046 4.046 0 0 1-.82-.93 4.923 4.923 0 0 1-.549-1.121 5.106 5.106 0 0 1-.26-1.219 3.7 3.7 0 0 1 .076-1.237" class="cls-5" data-name="Trazado 69" transform="translate(-58.779 -18.307)"/>
                <path id="Trazado_70" d="M98.081 35.855a2.623 2.623 0 0 1-.614-.778 3.56 3.56 0 0 1-.344-.935 4.059 4.059 0 0 1-.09-.988 2.938 2.938 0 0 1 .182-.971c.1.652.175 1.265.312 1.87a9.242 9.242 0 0 0 .236.9c.086.3.211.587.319.9" class="cls-5" data-name="Trazado 70" transform="translate(-56.943 -18.9)"/>
                <path id="Trazado_71" d="M246.276 123.023c-.311-.753-4.134-3.955-9.118-.276-10.346 7.634-10.806 19.332-10.959 20.139-55.881 2.536-38.47 46.1-38.47 46.1 28.213 12.791 39.778-24.941 39.778-24.941s2.32-4.412 10.97-6.023 8.5-6.3 7.038-14.646 1.669-18.161.761-20.358" class="cls-4" data-name="Trazado 71" transform="translate(-108.664 -71.069)"/>
                <path id="Trazado_72" d="M219.437 195.1c-.322 2.612-6.112-.481-6.257 8.463-.071 4.371-1.059 10.145 3.2 11.684 6.849 2.472 15.844-2.941 14.217-7.164-3.943-10.242 6.631-12.166 5.869-13.9s-16.118-6.491-17.032.913" class="cls-6" data-name="Trazado 72" transform="translate(-125.019 -112.22)"/>
                <path id="Trazado_73" d="M232.311 197.12c-2.093.433-1.6-.558-.469-2.2s-1.294-2.467-3.646-.889-4.549.06-4.043 1.214-1.841 1.623-1.805 2.777-3.069.866-3.1 1.767-.758 1.442-1.552 2.019.281 2.127.188 2.213a3.754 3.754 0 0 0 2.231-.158c1.624-.432 1.841.9.794 1.7s-2.635 3.029-.866 3.354 1.408.9-.036 3.246.939 2.163 1.913 3.654a2.7 2.7 0 0 0 4.477-.481c.758-1.731 4.4-1.262 4.007-2.078s.614-1.275 2.022-2.069.108-1.442-.8-2.691-.464-7.262 2.062-9.246.722-2.561-1.371-2.128" class="cls-31" data-name="Trazado 73" transform="translate(-127.58 -113.455)"/>
                <path id="Trazado_74" d="M236.116 194.984l-2 .609 1.456-.965a10.025 10.025 0 0 0-.882-.442l-5.2 1.768s2.519-1.369 4.1-2.209c-.616-.226-1.3-.445-2.029-.641a50.891 50.891 0 0 0-18.408 12.352c-.021.653-.055 1.329-.084 2.01l5.373-3.146-5.407 4.163c-.01.4-.014.808-.01 1.206l1.482-.416-1.443 1.491a12.364 12.364 0 0 0 .229 1.758l4.426-2.684-4.172 3.622a4.517 4.517 0 0 0 2.827 2.978 10.423 10.423 0 0 0 2.183.52l11.507-9.336c-2.253-8.8 7.116-10.612 6.4-12.245a1.165 1.165 0 0 0-.353-.392" class="cls-32" data-name="Trazado 74" transform="translate(-125.019 -113.406)"/>
                <path id="Trazado_75" d="M236.469 195.376a1.173 1.173 0 0 0-.353-.392l-2 .609 1.455-.965a9.852 9.852 0 0 0-.882-.442l-5.195 1.768s2.519-1.368 4.1-2.209c-.616-.226-1.3-.444-2.029-.641a50.888 50.888 0 0 0-18.408 12.352c-.022.653-.056 1.329-.084 2.01l5.373-3.146-5.407 4.163c-.01.4-.014.808-.01 1.207l1.482-.416-1.443 1.492a12.41 12.41 0 0 0 .229 1.757l4.426-2.684-4.172 3.622a4.517 4.517 0 0 0 2.827 2.978 10.4 10.4 0 0 0 2.183.52l11.507-9.336c-2.253-8.8 7.115-10.611 6.4-12.245m-6.539 5.337c-2.407 2.693-.626 6.78-.626 6.78l-11.359 8.27a7.971 7.971 0 0 1-3.225-2.019l5.006-5.386-5.439 2.934-.481-.529 2.936-2.693-2.936.769v-.384l6.979-5.626-6.979 3.222v-.577a52.72 52.72 0 0 1 16.7-11.492h1.2l-3.851 2.741 6.065-1.875h.482l-2.248 1.731 3.5-.673c-.24.385-3.321 2.116-5.727 4.808" class="cls-11" data-name="Trazado 75" transform="translate(-125.019 -113.406)"/>
                <path id="Trazado_76" d="M249 122.871a2.591 2.591 0 0 0-.727-.748 5.607 5.607 0 0 0-.9-.539 6.126 6.126 0 0 0-1.994-.577 6.838 6.838 0 0 0-3.992.848 10.494 10.494 0 0 0-1.717 1.163c-.554.426-1.082.882-1.6 1.349a25.558 25.558 0 0 0-2.842 3.059 27.91 27.91 0 0 0-4.065 7.246 29.942 29.942 0 0 0-1.208 3.985q-.23 1.016-.392 2.045c-.054.343-.1.687-.142 1.031l-.058.518c-.021.182-.03.331-.064.554l-.044.29-.311.024c-1.938.15-3.876.309-5.8.568s-3.85.521-5.754.9a58.077 58.077 0 0 0-11.153 3.235 35.027 35.027 0 0 0-9.932 5.906 24.643 24.643 0 0 0-3.886 4.3 20.967 20.967 0 0 0-1.493 2.5 21.724 21.724 0 0 0-1.122 2.693 21.175 21.175 0 0 1 6.2-9.819 35.1 35.1 0 0 1 9.962-6.22 58.811 58.811 0 0 1 11.27-3.363 84.672 84.672 0 0 1 11.659-1.463l-.355.314.122-1.022c.046-.353.1-.706.153-1.057q.172-1.054.417-2.094a30.574 30.574 0 0 1 1.268-4.074 27.138 27.138 0 0 1 4.3-7.337 26.04 26.04 0 0 1 2.966-3.054 26.852 26.852 0 0 1 1.656-1.336 10.818 10.818 0 0 1 1.814-1.135 7.1 7.1 0 0 1 4.17-.731 6.02 6.02 0 0 1 2.017.67 5.673 5.673 0 0 1 .882.589 2.607 2.607 0 0 1 .7.789" class="cls-5" data-name="Trazado 76" transform="translate(-111.389 -70.917)"/>
                <path id="Trazado_77" d="M321.494 111.385l.5-2.831q-.161-.094-.321-.176c-.475.706-1.582 2.588-1.47 2.364.1-.684.18-2.029.226-2.849a6.443 6.443 0 0 0-2.17-.192l-3.072 4.343 1.152-3.939a6.851 6.851 0 0 0-1.262.57 43.024 43.024 0 0 0-4.179 10.435c-.779 3.059.181 6.351 2.419 7.443 3.66 1.785 5.618 0 5.618 0l4.291-16.621z" class="cls-20" data-name="Trazado 77" transform="translate(-182.297 -63.239)"/>
                <g id="Grupo_32" class="cls-21" data-name="Grupo 32" transform="translate(135.464 49.479)">
                    <g id="Grupo_31" data-name="Grupo 31">
                        <g id="Grupo_30" class="cls-33" data-name="Grupo 30">
                            <path id="Trazado_78" d="M328.016 132.209c-.661 1.617 1.351-12.033 2.816-12.315s-1.037 7.969-2.816 12.315" class="cls-23" data-name="Trazado 78" transform="translate(-327.886 -119.887)"/>
                        </g>
                    </g>
                </g>
                <path id="Trazado_79" d="M248.28 197.2c-7.509 2.127-10.4 4.364-16.321 18.811-3.889 9.484-14.667 14.457-21.613 16.756 22.534 3.349 31.94-27.325 31.94-27.325s2.32-4.412 10.97-6.023c5.97-1.112 7.749-3.689 7.8-7.924-2.016 4.806-6.617 3.961-12.774 5.705" class="cls-5" data-name="Trazado 79" transform="translate(-123.443 -112.464)"/>
                <path id="Trazado_80" d="M304.345 160.324a18.026 18.026 0 0 0 2.54 1.208c.433.163.866.319 1.308.448.223.059.441.129.662.192l.672.151c.221.064.45.09.675.134s.452.085.681.106l.686.09.692.052c.463.05.928.035 1.4.057s.94-.022 1.427 0a11.794 11.794 0 0 1-1.388.4 10.151 10.151 0 0 1-1.44.183 10.556 10.556 0 0 1-2.908-.22 10.286 10.286 0 0 1-2.737-1.015 7.56 7.56 0 0 1-2.269-1.79" class="cls-5" data-name="Trazado 80" transform="translate(-178.607 -94.155)"/>
                <path id="Trazado_81" d="M307.93 171.071c.8.206 1.576.347 2.358.471s1.565.2 2.349.261c.786.044 1.574.092 2.369.1.4.016.8 0 1.2.011s.806-.01 1.222.02a11.34 11.34 0 0 1-1.172.382 11.782 11.782 0 0 1-1.21.23 12.1 12.1 0 0 1-2.469.084 11.241 11.241 0 0 1-2.435-.459 6.828 6.828 0 0 1-2.212-1.1" class="cls-5" data-name="Trazado 81" transform="translate(-180.711 -100.467)"/>
                <path id="Trazado_82" d="M311.164 178.586c.739.125 1.45.241 2.162.338s1.42.161 2.128.2a21.169 21.169 0 0 0 2.129.033c.718-.007 1.428-.094 2.182-.132a6.725 6.725 0 0 1-2.107.772 9.148 9.148 0 0 1-1.122.154 10.173 10.173 0 0 1-1.132 0 9.259 9.259 0 0 1-2.217-.4 6.878 6.878 0 0 1-2.023-.965" class="cls-5" data-name="Trazado 82" transform="translate(-182.609 -104.88)"/>
                <path id="Trazado_83" d="M318.964 127.81c-4.2.281-6.684-2.525-6.438-6.871.179-3.165 1.583-7.848 2.622-10.945l-.069.04a43.033 43.033 0 0 0-4.179 10.436c-.779 3.059.181 6.351 2.419 7.443 3.66 1.785 5.618 0 5.618 0z" class="cls-24" data-name="Trazado 83" transform="translate(-182.297 -64.597)"/>
                <path id="Trazado_84" d="M114.819 195.169c-1.877.721-2.181 1.807-4.419 1.014s-4.053 3.211-6.507 1.985-5.884 2.622-7.71 2.393c-4.143-.517-3.859 2.026-6.693 2.275-1.578-.534-.664-3.371-2.155-4.909s-.433-4.135-2.551-5.963-2.779-7.489-3.363-7.615c-.567-.123-.873 3.1.475 5.692s2.262 4.183 2.166 5.722.011 3.312 1.185 4.2.547 3.344 3.484 6.47c3.251 3.461 3.487 11.469 3.2 15.147s-.794 7.429 1.805 7 2.093-1.226 1.516-6.419-1.129-12.07-1.177-13.945c-.127-5.025 3.744-6.462 4.765-4.615 1.011 1.827 2.335 1.635 3.851.769s-.694-2.511.678-3.809 3.148-.615 4.953.828 2.926-.084 3.466-1.587c.915-2.549 2.657-1.312 5.906-3.62s-1-1.735-2.873-1.014" class="cls-15" data-name="Trazado 84" transform="translate(-47.499 -108.263)"/>
                <path id="Trazado_85" d="M114.019 199.924a4.5 4.5 0 0 0-3.788 2.946c-.828 1.864-1.988.371-3.215-.366s-4.26-.2-5.27 1.04.072 2.872-.939 3.569-1.3-1.275-2.744-2.174-4.332 1.477-4.909 4.217 1.083 9.953 1.011 11.876 0 6.3-.866 6.425-1.415-2.093-.578-7.048-.938-7.5-2.094-10.914-3.893-3.1-3.823-5.95-1.881-1.6-1.809-2.971.794-2.813-.866-4.544c-1.111-1.158-2.415-4.511-3.157-6.6a8.993 8.993 0 0 0 .943 3.6c1.348 2.6 2.262 4.183 2.166 5.722s.012 3.313 1.185 4.2.548 3.345 3.484 6.47c3.251 3.461 3.487 11.469 3.2 15.147s-.794 7.429 1.805 7 2.094-1.226 1.516-6.419-1.129-12.07-1.176-13.945c-.128-5.025 3.744-6.462 4.765-4.615 1.011 1.827 2.334 1.635 3.851.769s-.694-2.511.679-3.809 3.148-.615 4.953.828 2.926-.084 3.466-1.587c.914-2.549 2.657-1.312 5.906-3.62.849-.6 1.184-1.009 1.184-1.267a7.611 7.611 0 0 1-4.876 2.026" class="cls-16" data-name="Trazado 85" transform="translate(-47.518 -111.246)"/>
                <path id="Trazado_86" d="M0 393.546s8.717-14.942 23.435-9.828c0 0 11.936-14.718 24.983-7.932 0 0 20.148-18.638 40.337-3 0 0 16.891-3.275 26.96 7.19 0 0 27.533-2.305 43.142 13.8z" class="cls-34" data-name="Trazado 86" transform="translate(0 -215.261)"/>
                <g id="Grupo_35" class="cls-35" data-name="Grupo 35" transform="translate(0 151.277)">
                    <g id="Grupo_34" data-name="Grupo 34">
                        <g id="Grupo_33" class="cls-36" data-name="Grupo 33">
                            <path id="Trazado_87" d="M115.715 384.44c-10.07-10.465-26.961-7.191-26.961-7.191-20.189-15.641-40.337 3-40.337 3-13.047-6.786-24.983 7.932-24.983 7.932C9.9 381.433 0 393.545 0 393.545s8.717-14.942 23.435-9.829c0 0 11.936-14.718 24.983-7.932 0 0 20.148-18.637 40.337-3 0 0 16.891-3.275 26.961 7.19 0 0 27.533-2.305 43.142 13.8 0 0-22.663-15.751-43.142-9.342" class="cls-23" data-name="Trazado 87" transform="translate(0 -366.537)"/>
                        </g>
                    </g>
                </g>
            </g>
        </g>
    </g>
</svg>
