<svg xmlns="http://www.w3.org/2000/svg" id="Grupo_41" width="315" height="170.708" data-name="Grupo 41" viewBox="0 0 315 170.708">
    <defs>
        <style>
            .cls-1{fill:none}.cls-2{clip-path:url(#clip-path)}.cls-3{fill:#abb8de}.cls-4{fill:#79cace}.cls-5{fill:#533194}.cls-6{fill:#1a0b2b}.cls-7{fill:#fcfcfc}
        </style>
        <clipPath id="clip-path">
            <path id="Rectángulo_38" d="M0 0h315v170.708H0z" class="cls-1" data-name="Rectángulo 38"/>
        </clipPath>
    </defs>
    <g id="Grupo_40" class="cls-2" data-name="Grupo 40">
        <path id="Trazado_88" d="M100.67 74.295c-4.848-3.859-8.371-9.984-7.435-16.11s7.516-11.3 13.391-9.328c4.855 1.635 7.273 6.877 10.086 11.16 12.463 18.963 76.5 32.866 99.061 35.257 3.767.4 7.736.77 11.2-.758 2.678-1.178 4.758-3.365 7.107-5.113 3.825-2.85 8.726-4.587 13.4-3.657s8.847 5.006 8.913 9.775c.11 7.871-9.25 11.875-16.907 13.707 5.171 4.313 8.956 11 7.79 17.631s-8.74 11.994-14.883 9.243c-5.351-2.394-7.08-8.945-10.188-13.914-4.461-7.136-15.1-9.4-23.009-12.263-19.73-7.149-77.615-19.062-97.43-12.15-4.2 1.467-8.854 3.236-12.925 1.444-5.662-2.49-6.476-10.89-2.93-15.96s9.821-7.413 15.84-8.84" class="cls-3" data-name="Trazado 88" transform="translate(58.598 33.87)"/>
        <path id="Trazado_89" d="M242.583 90.18c-3.13-2.746-7.35-3.808-11.4-4.785C199.686 77.8 168.124 74 136.624 66.41c-8.621-2.08-34.045-11.9-38.4-17.619C94.106 31.474 86.61 14.324 70.964 6c-5.836-3.109-26.723-8.733-36.958-4.45-4.536 1.9-8.653 6.728-5.594 12.895 3.159 6.369 19.784 7.34 25.506 10.082 10.031 4.806 14.462 10.2 17.023 21.149.406 1.735 1.137 5.346 2.219 9.7-7.988-2.755-20.15-5.935-24.26-6.307-5.042-.461-10.065 1.082-14.676 3.171C18.968 59.147 6.373 69.508.865 85.329c-.806 2.315-.8 5.061-.09 6.451a5.064 5.064 0 0 0 2.537 2.236 13.847 13.847 0 0 0 4.116 1.062 63.514 63.514 0 0 0-5.96 10.307c-1.691 3.717-2.423 8.531.6 11.274a9.29 9.29 0 0 0 8.844 2.1 32.669 32.669 0 0 0 7.773-3.268c-.136.18-.279.353-.413.534a24.3 24.3 0 0 0-3.756 7.117c-1.947 6.1 2.6 10.492 9.328 9.826 4.379-.433 11.139-5.095 16.866-11.355 2.223-2.43 9-6.908 12.239-7.509 2.955-.547 5.837 1.038 8.476 2.479a10.826 10.826 0 0 0 2.4.9c10.9 4.291 27.676 1.635 37.768 6.694 8.731 4.376 22.746 19.862 31.994 23.008s22.189 3.725 29.21-3.066l.534.134c14.326 7.3 34.157 16.1 50.23 16.494 4.9.121 10.546-1.492 10.3-5.79s-7.628-5.4-11.916-7.695a52.7 52.7 0 0 0 18.776-.3c2.609-.515 5.379-1.359 6.959-3.5 3.246-4.384-.792-10.737-5.691-13.131s-7.63-4.146-15.135-6.06a42.46 42.46 0 0 0 18.625-2.114c3.117-1.088 6.69-3.909 5.382-6.94a6.14 6.14 0 0 0-2.442-2.461 48.4 48.4 0 0 0-15.967-6.826c9.562-.054 18 1.97 22.5-4.587 2.35-3.434.765-8.424-2.366-11.17" class="cls-4" data-name="Trazado 89"/>
        <path id="Trazado_90" d="M144.558 75.636a30.81 30.81 0 0 0 8.033 2.211" class="cls-5" data-name="Trazado 90" transform="translate(101.099 52.897)"/>
        <path id="Trazado_91" d="M144.461 76.895a32.266 32.266 0 0 0 8.271 2.309 1.03 1.03 0 0 0 1.224-.7 1 1 0 0 0-.7-1.224 30.455 30.455 0 0 1-7.8-2.109 1.029 1.029 0 0 0-1.361.357 1 1 0 0 0 .357 1.361" class="cls-6" data-name="Trazado 91" transform="translate(100.693 52.497)"/>
        <path id="Trazado_92" d="M150.783 80.692l2.549.85" class="cls-4" data-name="Trazado 92" transform="translate(105.453 56.433)"/>
        <path id="Trazado_93" d="M150.926 82.063l2.549.85a1 1 0 0 0 1.224-.7 1.02 1.02 0 0 0-.7-1.224l-2.549-.85a1 1 0 0 0-1.224.7 1.018 1.018 0 0 0 .7 1.224" class="cls-6" data-name="Trazado 93" transform="translate(105.047 56.022)"/>
        <path id="Trazado_94" d="M188.077 73.869a12.571 12.571 0 0 0-14.876 3.2c-.806.982.595 2.4 1.405 1.405a10.582 10.582 0 0 1 12.467-2.887c1.15.549 2.16-1.166 1-1.718" class="cls-7" data-name="Trazado 94" transform="translate(120.962 50.834)"/>
        <path id="Trazado_95" d="M172.284 76.693l-2.122 1.278a1.035 1.035 0 0 0-.457.595 1.024 1.024 0 0 0 .1.766 1 1 0 0 0 .6.455 1.026 1.026 0 0 0 .765-.1l2.123-1.278a1.035 1.035 0 0 0 .457-.595 1.023 1.023 0 0 0-.1-.766 1 1 0 0 0-.595-.457 1.032 1.032 0 0 0-.766.1" class="cls-7" data-name="Trazado 95" transform="translate(118.663 53.545)"/>
        <path id="Trazado_96" d="M29.209 1.04c-3.438-.348-8.1.736-9.245 2.812-1.113 2.021.512 5.1 2.27 5.883 2.384 1.064 5.433 1.283 9.2-.44a6.337 6.337 0 0 0 3.253-3.657 2.9 2.9 0 0 0-1.463-3.71 12.28 12.28 0 0 0-4.011-.889" class="cls-5" data-name="Trazado 96" transform="translate(13.707 .683)"/>
        <path id="Trazado_97" d="M17.535 77.956c2.52-1.65 5.085-4.938 4.721-6.974-.352-1.981-3.14-3.176-4.762-2.743-2.2.586-4.386 2.109-5.99 5.339a5.517 5.517 0 0 0-.2 4.262 2.522 2.522 0 0 0 3.025 1.711 10.7 10.7 0 0 0 3.205-1.6" class="cls-5" data-name="Trazado 97" transform="translate(7.672 47.663)"/>
        <path id="Trazado_98" d="M5.7 61.086c-2.228 2.845-3.875 7.566-2.678 9.739 1.162 2.114 4.791 2.4 6.466 1.28 2.27-1.512 4.169-4.084 4.746-8.368a6.625 6.625 0 0 0-1.416-4.918 3.025 3.025 0 0 0-4.094-.778A12.825 12.825 0 0 0 5.7 61.086" class="cls-5" data-name="Trazado 98" transform="translate(1.832 40.259)"/>
        <path id="Trazado_99" d="M3.98 49.4c-1.909 2.627-3.387 6.762-2.458 8.446.9 1.638 3.881 1.468 5.29.348a11.541 11.541 0 0 0 4.128-7.532 4.919 4.919 0 0 0-1.04-3.954c-.8-.885-1.92-1.161-3.351-.194A13.6 13.6 0 0 0 3.98 49.4" class="cls-5" data-name="Trazado 99" transform="translate(.865 32.105)"/>
        <path id="Trazado_100" d="M12.84 77.514A100.138 100.138 0 0 1 27.826 61.82a31.677 31.677 0 0 1 8.66-5.487 19.841 19.841 0 0 1 10.553-.919 50.246 50.246 0 0 1 11.924 4c1.159.515 2.172-1.2 1-1.718-6.918-3.086-14.694-6.023-22.318-3.851-7.035 2.005-12.825 7.61-17.84 12.676a105.915 105.915 0 0 0-8.687 9.985c-.78 1.015.947 2.007 1.716 1" class="cls-7" data-name="Trazado 100" transform="translate(7.641 37.136)"/>
        <path id="Trazado_101" d="M5.96 66.66a113.121 113.121 0 0 1 20.222-17.422A33.558 33.558 0 0 1 37.4 44.159c4.437-.955 8.833-.139 13.131 1.083 5.2 1.478 10.353 3.112 15.524 4.673A.994.994 0 0 0 66.588 48c-4.792-1.45-9.576-2.921-14.375-4.342-4.418-1.307-8.952-2.355-13.58-1.721-8.653 1.183-16.086 7.057-22.6 12.473A126.319 126.319 0 0 0 4.552 65.255c-.873.935.53 2.343 1.407 1.405" class="cls-7" data-name="Trazado 101" transform="translate(2.991 29.196)"/>
        <path id="Trazado_102" d="M43.438 34.483a33.679 33.679 0 0 1 8.711 3.317c1.123.619 2.128-1.1 1-1.718a35.748 35.748 0 0 0-9.187-3.523c-1.246-.287-1.778 1.63-.529 1.919" class="cls-7" data-name="Trazado 102" transform="translate(29.881 22.754)"/>
        <path id="Trazado_103" d="M50.456 37.48a9.028 9.028 0 0 1 15.175 5.581c.139 1.258 2.129 1.273 1.988 0a11.016 11.016 0 0 0-18.571-6.986c-.941.872.467 2.274 1.407 1.405" class="cls-7" data-name="Trazado 103" transform="translate(34.086 23.119)"/>
        <path id="Trazado_104" d="M49.04 49.723c2.415-1.7 5.256-3.766 8.391-3.222a4.318 4.318 0 0 1 3.122 2.09 11.877 11.877 0 0 1 1.139 4.186 1 1 0 0 0 1.224.693 1.018 1.018 0 0 0 .7-1.224 12.52 12.52 0 0 0-1.448-4.838 6.214 6.214 0 0 0-4-2.785c-3.8-.819-7.156 1.29-10.13 3.383-1.038.731-.046 2.457 1 1.716" class="cls-7" data-name="Trazado 104" transform="translate(33.287 31.082)"/>
        <path id="Trazado_105" d="M47.421 59.39a7.263 7.263 0 0 1 11.637 1.41 1 1 0 0 0 1.716-1 9.275 9.275 0 0 0-14.759-1.812c-.894.918.512 2.325 1.405 1.405" class="cls-7" data-name="Trazado 105" transform="translate(31.982 38.55)"/>
        <path id="Trazado_106" d="M109.278 59.049c-.019-.109-.015-.09.008.063a1.506 1.506 0 0 1-.008-.136c0-.078.007-.156.007-.235s0-.044-.017.1c.007-.042.015-.088.024-.131a2.167 2.167 0 0 1 .07-.26 1.7 1.7 0 0 1 .022-.066c.037-.1.029-.083-.027.051a.834.834 0 0 1 .121-.243c.036-.059.07-.117.109-.173a1.212 1.212 0 0 1 .078-.112q-.133.166-.031.041c.109-.117.219-.228.336-.336.085-.068.071-.058-.039.032.036-.027.073-.053.11-.076.056-.037.116-.071.175-.105l.119-.061c.1-.044.082-.037-.051.022a1.188 1.188 0 0 0 .19-.063 1.15 1.15 0 0 1 .263-.059c-.153.019-.173.022-.063.014.034 0 .068 0 .1-.005s.233-.014.241.008c-.15-.022-.17-.025-.061-.007a1.18 1.18 0 0 1 .134.029c.066.017.131.041.2.058.1.039.085.031-.048-.024a2.552 2.552 0 0 1 .416.233c.088.065.076.053-.034-.032a1.358 1.358 0 0 1 .35.333c.031.036.059.07.088.107-.076-.1-.093-.124-.053-.063s.092.133.133.2c.027.048.136.19.127.243-.051-.121-.061-.148-.034-.078.012.032.024.063.036.1.029.087.053.175.073.263.053.241.032.014.009 0a1.027 1.027 0 0 1 .01.274c0 .066-.042.374 0 .078a1.022 1.022 0 0 0 .7 1.224 1 1 0 0 0 1.222-.693 3.557 3.557 0 0 0-.427-2.415 3.716 3.716 0 0 0-1.645-1.507 3.251 3.251 0 0 0-2.425-.15 3.886 3.886 0 0 0-1.9 1.494 3.528 3.528 0 0 0-.527 2.6 1 1 0 0 0 1.224.693 1.022 1.022 0 0 0 .7-1.224" class="cls-7" data-name="Trazado 106" transform="translate(75.045 38.688)"/>
        <path id="Trazado_107" d="M86.242 51.133c-.019-.075-.025-.153-.048-.226-.036-.126 0 .2.012.07 0-.031-.007-.066-.008-.1a3.552 3.552 0 0 0 .017-.525c.012.012-.048.252-.007.07l.02-.1c.015-.075.034-.15.056-.221s.054-.168.083-.252c.008-.027.051-.134 0 0-.059.148.017-.031.032-.061a3.339 3.339 0 0 1 .231-.4c.024-.037.049-.071.073-.109.085-.124-.037.036-.034.046-.008-.029.153-.175.173-.2.053-.054.107-.107.163-.16.032-.027.068-.054.1-.083.078-.078-.073.066-.075.056-.01-.049.389-.246.437-.269.015-.009.116-.053.116-.056 0 .014-.192.066-.088.042.071-.017.141-.048.212-.068a1.892 1.892 0 0 0 .253-.053c-.007.008-.209.01-.1.014.054 0 .11-.008.163-.008.071 0 .148.014.218.007.126-.014-.206-.049-.083-.012.029.007.061.008.09.015q.12.025.235.061a.567.567 0 0 0 .085.031c.116.022-.2-.1-.041-.019.127.068.246.138.369.214.143.09-.048-.024-.054-.046a.44.44 0 0 0 .1.08 2.089 2.089 0 0 1 .178.168c.051.053.1.107.146.16.158.18-.076-.124.014.02s.168.279.246.425c.056.107-.039.031-.027-.07 0 .027.034.088.042.114a2.31 2.31 0 0 1 .076.262c.014.051.056.3.031.133s0-.027 0 .015.005.1.005.148a1.24 1.24 0 0 0-.014.236c-.005-.022.049-.248.01-.09l-.027.116c-.01.04-.1.319-.046.163s-.063.105-.092.153a1.006 1.006 0 0 0 .357 1.361 1.017 1.017 0 0 0 1.361-.357 3.588 3.588 0 1 0-6.368-3.31 4.2 4.2 0 0 0-.5 3.137 1 1 0 0 0 1.222.693 1.015 1.015 0 0 0 .7-1.224" class="cls-7" data-name="Trazado 107" transform="translate(58.896 32.572)"/>
        <path id="Trazado_108" d="M95.208 73.11A9.388 9.388 0 0 1 96 68.4a8.846 8.846 0 0 1 1.162-1.91c.35-.421.892-.992 1.472-.95a2.087 2.087 0 0 1 1.353 1.06 13.472 13.472 0 0 1 1.081 2.072 25.168 25.168 0 0 1 1.63 5.122.994.994 0 1 0 1.917-.528 26.443 26.443 0 0 0-1.456-4.731 11.4 11.4 0 0 0-2.269-3.941 3.177 3.177 0 0 0-4.136-.418 8.623 8.623 0 0 0-2.7 3.754 11.211 11.211 0 0 0-.833 5.185 1.019 1.019 0 0 0 .994.994 1 1 0 0 0 .994-.994" class="cls-7" data-name="Trazado 108" transform="translate(65.171 44.471)"/>
    </g>
</svg>
